<svg xmlns="http://www.w3.org/2000/svg" width="281" height="234" viewBox="0 0 281 234">
  <g id="Ilustration" transform="translate(-47 -117)">
    <g id="t_shirt">
      <rect id="square_2" width="66.071" height="66.071" rx="7" transform="translate(47 117)" fill="#f6f6f7"/>
      <g id="T_shirt-2" data-name="T_shirt">
        <g id="Group_530" data-name="Group 530">
          <path id="Vector_83" data-name="Vector 83" d="M73.617,129.785a6.427,6.427,0,0,0,6.418,6.045v35.155H66.055a1,1,0,0,1-1-1V145.513a1,1,0,0,0-1.261-.965l-2.975.8a1,1,0,0,1-1.215-.665l-2.661-8.46a1,1,0,0,1,.567-1.222l14.629-6.143A1.1,1.1,0,0,1,73.617,129.785Z" fill="#a4c4f4"/>
          <path id="Vector_87" data-name="Vector 87" d="M86.454,129.785a6.427,6.427,0,0,1-6.418,6.045v35.155h13.98a1,1,0,0,0,1-1V145.513a1,1,0,0,1,1.261-.965l2.975.8a1,1,0,0,0,1.215-.665l2.662-8.46a1,1,0,0,0-.567-1.222l-14.629-6.143A1.1,1.1,0,0,0,86.454,129.785Z" fill="#a4c4f4"/>
        </g>
        <path id="Ellipse_42" data-name="Ellipse 42" d="M80.035,135.129c4.229,0,5.406-2.989,5.606-5.849a.949.949,0,0,0-.966-1H75.4a.949.949,0,0,0-.966,1C74.63,132.14,75.807,135.129,80.035,135.129Z" fill="#54b7d6"/>
        <path id="Ellipse_43" data-name="Ellipse 43" d="M86.965,146.813a2.1,2.1,0,0,0,2.1-2.1v-1.434a.5.5,0,0,0-.5-.5H85.37a.5.5,0,0,0-.5.5v1.434A2.1,2.1,0,0,0,86.965,146.813Z" fill="#fff"/>
      </g>
    </g>
    <g id="pants">
      <rect id="square_3" width="66.071" height="90.243" rx="7" transform="translate(47 188.711)" fill="#f6f6f7"/>
      <g id="pants_2">
        <path id="Vector_3" d="M96.51,261.87H87.522l-7.38-41.283a.26.26,0,0,0-.511,0l-7.38,41.283H63.263l1.654-46.9v-2.774l.3-5.611H94.62l.236,3.85v4.535Z" fill="#57636f"/>
        <path id="Vector_4" d="M87.474,261.87l.559,3.124a1.3,1.3,0,0,0,1.277,1.069h5.956a1.3,1.3,0,0,0,1.3-1.343l-.1-2.85Z" fill="#acbac3"/>
        <path id="Vector_5" d="M72.2,261.87l-.558,3.124a1.3,1.3,0,0,1-1.277,1.069H64.412a1.3,1.3,0,0,1-1.3-1.343l.1-2.85Z" fill="#acbac3"/>
        <path id="Vector_6" d="M96.461,261.87H93.314l.148,4.193h1.8a1.3,1.3,0,0,0,1.3-1.343Z" fill="#7a8d9c"/>
        <path id="Vector_7" d="M94.112,202.922v3.746H65.565v-3.746a1.291,1.291,0,0,1,1.261-1.319H92.85A1.291,1.291,0,0,1,94.112,202.922Z" fill="#57636f"/>
        <path id="Vector_8" d="M63.364,261.87h3.147l-.148,4.193h-1.8a1.3,1.3,0,0,1-1.3-1.343Z" fill="#7a8d9c"/>
        <path id="Vector_9" d="M69.709,201.6l-.7,2.656a3.982,3.982,0,0,1-3.9,2.869h0l.207-5.525Z" fill="#acbac3"/>
        <path id="Vector_10" d="M89.968,201.6l.7,2.656a3.982,3.982,0,0,0,3.9,2.869h0l-.207-5.525Z" fill="#acbac3"/>
        <path id="Vector_11" d="M65.105,207.128h0l.2-5.525h2.1l-.175,4.892A3.87,3.87,0,0,1,65.105,207.128Z" fill="#7a8d9c"/>
        <path id="Vector_12" d="M94.572,207.128h0l-.2-5.525h-2.1l.175,4.892A3.87,3.87,0,0,0,94.572,207.128Z" fill="#7a8d9c"/>
        <circle id="Ellipse_44" data-name="Ellipse 44" cx="0.691" cy="0.691" r="0.691" transform="translate(79.378 202.524)" fill="#f6f6f7"/>
      </g>
    </g>
    <g id="Dress">
      <rect id="square_4" width="66.071" height="90.243" rx="7" transform="translate(120.323 117)" fill="#f6f6f7"/>
      <g id="Dress_2">
        <path id="Vector_13" data-name="Vector 13" d="M143.483,129.892H144.6a1,1,0,0,1,1,1v4.831a1.161,1.161,0,0,0,1.176,1.1c3.186.079,5.687,2.587,6.614,3.978v52.195c-3.9,2.337-10.127,1.558-12.464-1.559-6.233.779-8.57-2.077-10.128-3.9,4.415-8.829,13.555-27.265,14.8-30.381,1.558-3.9,0-7.791-.779-9.349s-2.337-4.674-2.337-7.79v-9.127A1,1,0,0,1,143.483,129.892Z" fill="#e4126b"/>
        <path id="Vector_14" data-name="Vector 14" d="M162.516,129.892H161.4a1,1,0,0,0-1,1v4.831a1.162,1.162,0,0,1-1.176,1.1c-3.187.079-5.687,2.587-6.614,3.978v52.195c3.9,2.337,10.127,1.558,12.464-1.559,6.232.779,8.569-2.077,10.127-3.9-4.414-8.829-13.554-27.265-14.8-30.381-1.558-3.9,0-7.791.779-9.349s2.337-4.674,2.337-7.79v-9.127A1,1,0,0,0,162.516,129.892Z" fill="#e4126b"/>
      </g>
    </g>
    <g id="shoes">
      <rect id="square_5" width="50" height="49" rx="7" transform="translate(194 118)" fill="#f6f6f7"/>
      <g id="Shoes-2" data-name="Shoes">
        <path id="Vector_88" data-name="Vector 88" d="M225.88,131c-2.64,7.392-12.687,11.618-17.38,12.571a23.361,23.361,0,0,0,3.143,5.029H236V132.76Z" fill="#018790"/>
        <path id="Rectangle_29" data-name="Rectangle 29" d="M203,148.6h33V151a2,2,0,0,1-2,2H205a2,2,0,0,1-2-2Z" fill="#fff"/>
        <path id="Ellipse_45" data-name="Ellipse 45" d="M208.5,143.571a5.5,5.5,0,0,0-5.5,5.5h11A5.5,5.5,0,0,0,208.5,143.571Z" fill="#fff"/>
        <path id="Rectangle_30" data-name="Rectangle 30" d="M214,141.686l1.4-.613,1.344,3.075a.765.765,0,0,1-1.4.613Z" fill="#fff"/>
        <path id="Rectangle_31" data-name="Rectangle 31" d="M216.357,140.429l1.332-.754,1.652,2.922a.765.765,0,1,1-1.331.753Z" fill="#fff"/>
        <path id="Rectangle_32" data-name="Rectangle 32" d="M218.84,138.92l1.252-.88,1.93,2.746a.765.765,0,1,1-1.252.88Z" fill="#fff"/>
        <path id="Rectangle_33" data-name="Rectangle 33" d="M220.6,137.728l1.151-1.008,2.211,2.525a.765.765,0,1,1-1.151,1.008Z" fill="#fff"/>
        <path id="Rectangle_34" data-name="Rectangle 34" d="M222.36,136.2l1.1-1.1,2.677,2.112a.766.766,0,0,1-.947,1.2Z" fill="#fff"/>
        <path id="Rectangle_35" data-name="Rectangle 35" d="M224.12,134.3l.88-1.32,2.753,2.238a.769.769,0,0,1-.963,1.2Z" fill="#fff"/>
        <circle id="Ellipse_46" data-name="Ellipse 46" cx="2.64" cy="2.64" r="2.64" transform="translate(227.64 140.68)" fill="#fff"/>
      </g>
    </g>
    <g id="heels">
      <g id="Group_669" data-name="Group 669">
        <rect id="Rectangle_31_2" data-name="Rectangle 31_2" width="50" height="48" rx="7" transform="translate(194 230)" fill="#f6f6f7"/>
        <path id="Heels-2" data-name="Heels" d="M204.233,264.635c1.259-1.464,8.3-3.965,9.1-4.246a.493.493,0,0,1,.322,0,8.1,8.1,0,0,0,2.473.491,3.751,3.751,0,0,0,2.4-.717,5.845,5.845,0,0,0,1.539-2.363c.5-1.163,1.028-2.325,1.541-3.448l.52-1.14c.729-1.61,1.353-3.08,1.906-4.5a19.432,19.432,0,0,1,3.938-6.125,1.885,1.885,0,0,1,2.6-.135c.2.17.39.345.578.526a9.669,9.669,0,0,1,2.464,3.489,10.668,10.668,0,0,1,.189,5.031l-.009.075c-.184,1.518-.3,3.078-.4,4.454-.13,1.744-.229,3.511-.295,5.252l-.035.861c-.025.6-.051,1.21-.062,1.8-.006.314,0,1.227,0,1.9l0,.639a.505.505,0,0,1-.5.511h-2a.526.526,0,0,1-.5-.534c0-.416-.01-6.222,0-8.66,0-.283.005-.532.009-.758a8.183,8.183,0,0,0-.276-2.693,1.9,1.9,0,0,0-.6-1.092.243.243,0,0,0-.217-.014c-.412.135-.776.774-1.021,1.2a15.054,15.054,0,0,0-.959,2.1c-.014.035-.049.134-.1.285-1.7,4.764-2.953,7.585-3.712,8.385a5.771,5.771,0,0,1-4.168,1.78h-6.309c-3.639-.044-8.079-.336-8.574-1.471A.823.823,0,0,1,204.233,264.635Z" fill="#ff809f"/>
      </g>
    </g>
    <g id="make_up" data-name="make up">
      <rect id="square_6" width="79" height="79" rx="7" transform="translate(249 117)" fill="#f6f6f7"/>
      <g id="Make_Up-2" data-name="Make Up">
        <path id="Vector_13-2" data-name="Vector_13" d="M291.2,153.064h24.929V175.07a1,1,0,0,1-1,1H292.2a1,1,0,0,1-1-1Z" fill="#daf0f7"/>
        <path id="Vector_14-2" data-name="Vector_14" d="M291.2,150.229a1,1,0,0,1,1-1h22.929a1,1,0,0,1,1,1v2.835H291.2Z" fill="#a4c4f4"/>
        <path id="Vector_15" d="M299.826,162.646a2.876,2.876,0,1,0-2.876-2.876A2.876,2.876,0,0,0,299.826,162.646Z" fill="#ffa771"/>
        <path id="Vector_16" d="M309.414,162.65a2.876,2.876,0,1,0-2.876-2.877A2.877,2.877,0,0,0,309.414,162.65Z" fill="#fc7a9b"/>
        <path id="Vector_17" d="M299.826,172.234a2.876,2.876,0,1,0-2.876-2.876A2.876,2.876,0,0,0,299.826,172.234Z" fill="#c7dc5b"/>
        <path id="Vector_18" d="M309.414,172.238a2.877,2.877,0,1,0-2.876-2.877A2.877,2.877,0,0,0,309.414,172.238Z" fill="#d1a6f7"/>
        <path id="Vector_19" d="M295.991,154.981h-7.67V137.725a1.917,1.917,0,0,1,3.068-1.534l3.835,2.876a1.912,1.912,0,0,1,.767,1.534Z" fill="#e4126b"/>
        <path id="Vector_20" d="M295.991,154.978h-7.67l-.959,3.835v15.342a1.919,1.919,0,0,0,1.918,1.918h5.752a1.919,1.919,0,0,0,1.918-1.918V158.813Z" fill="#fed883"/>
        <path id="Vector_21" d="M287.362,158.813h9.588s-.959-3.833-.959-3.833h-7.67Z" fill="#fec138"/>
        <path id="Vector_22" d="M288.321,147.309h7.67v7.671h-7.67Z" fill="#fed883"/>
        <path id="Vector_23" d="M274.9,173.193a14.867,14.867,0,1,0-14.382-14.86A14.627,14.627,0,0,0,274.9,173.193Z" fill="#ff809f"/>
        <path id="Vector_24" d="M274.9,168.4a10.547,10.547,0,1,0-10.547-10.547A10.547,10.547,0,0,0,274.9,168.4Z" fill="#fff"/>
        <path id="Vector_25" d="M260.516,168.4H289.28v5.753a1.919,1.919,0,0,1-1.918,1.918H262.433a1.917,1.917,0,0,1-1.917-1.918Z" fill="#f55f84"/>
        <path id="Vector_26" d="M271.062,168.4h7.671v1.918a1.917,1.917,0,0,1-1.918,1.917H272.98a1.917,1.917,0,0,1-1.918-1.917Z" fill="#ffc5d3"/>
      </g>
    </g>
    <g id="children_clothes" data-name="children clothes">
      <g id="Group_538" data-name="Group 538">
        <rect id="square_7" width="66.071" height="65.265" rx="7" transform="translate(120.016 213.689)" fill="#f6f6f7"/>
      </g>
      <g id="Group_2" data-name="Group 2" transform="translate(133.522 230.499)">
        <path id="Path_8" data-name="Path 8" d="M343.545,1552.3a15.859,15.859,0,0,1-.114,1.891h-.02l0-1.442a7.052,7.052,0,0,0-2.029-4.975,6.9,6.9,0,0,0-9.555-.283,6.884,6.884,0,0,0-4.634-1.8h0a7,7,0,0,0-6.966,7.023l-.006,3.787a2.344,2.344,0,0,0,.677,1.659,2.294,2.294,0,0,0,1.639.689,2.331,2.331,0,0,0,2.322-2.34l.006-3.788a2.356,2.356,0,0,1,.681-1.656,2.305,2.305,0,0,1,1.641-.684,2.332,2.332,0,0,1,2.315,2.345l-.005,3.79a2.345,2.345,0,0,0,.676,1.658,2.294,2.294,0,0,0,1.639.689,2.331,2.331,0,0,0,2.322-2.34l.006-3.787a.354.354,0,0,1,0-.046,2.345,2.345,0,0,1,.679-1.611,2.313,2.313,0,0,1,1.637-.684,2.4,2.4,0,0,1,2.319,2.418l-.005,3.716a2.33,2.33,0,0,0,2.315,2.347l1.037,0a15.859,15.859,0,1,1,1.424-6.58Z" transform="translate(-312.24 -1536.454)" fill="#080c87"/>
        <circle id="Ellipse_1" data-name="Ellipse 1" cx="3.306" cy="3.306" r="3.306" transform="translate(32.446 16.484)" fill="#a4c4f4"/>
      </g>
    </g>
    <g id="underwear">
      <rect id="square_8" width="50" height="48" rx="7" transform="translate(194 174)" fill="#f6f6f7"/>
      <g id="Rectangle_39" data-name="Rectangle 39" transform="translate(211 183)" fill="#fff" stroke="#fbba32" stroke-width="0.5">
        <rect width="17" height="30" rx="2" stroke="none"/>
        <rect x="0.25" y="0.25" width="16.5" height="29.5" rx="1.75" fill="none"/>
      </g>
      <path id="Rectangle_40" data-name="Rectangle 40" d="M0,0H7A0,0,0,0,1,7,0V1A1,1,0,0,1,6,2H1A1,1,0,0,1,0,1V0A0,0,0,0,1,0,0Z" transform="translate(216 183)" fill="#fbba32"/>
    </g>
    <g id="Laptop">
      <rect id="square_9" width="79" height="77" rx="7" transform="translate(249 201)" fill="#f6f6f7"/>
      <g id="Laptop_2">
        <path id="Vector_38" d="M312.455,250.567a.24.24,0,0,0-.179-.082H266.283a.233.233,0,0,0-.178.082.236.236,0,0,0-.055.189c.006.043.7,4.3,6.085,4.3h34.29c5.384,0,6.077-4.259,6.085-4.3A.244.244,0,0,0,312.455,250.567Zm-19.716,3H285.82v-1.59h6.919Z" fill="#54b7d6"/>
        <path id="Vector_39" d="M271.061,248.829H307.5a.955.955,0,0,0,.955-.954v-22.38a.955.955,0,0,0-.955-.954H271.061a.955.955,0,0,0-.955.954v22.38A.955.955,0,0,0,271.061,248.829Zm2.385-20.948h31.667V245.49H273.446Z" fill="#54b7d6"/>
      </g>
    </g>
    <g id="Sofa">
      <rect id="square_10" width="66" height="66" rx="7" transform="translate(47 285)" fill="#f6f6f7"/>
      <g id="sofa-2" data-name="sofa">
        <path id="Rectangle_198" data-name="Rectangle 198" d="M87.233,300H71.984a3,3,0,0,0-3,2.994v19.64H90.233V303A3,3,0,0,0,87.233,300Z" fill="#a4c4f4"/>
        <path id="Rectangle_200" data-name="Rectangle 200" d="M71.268,319.56c7.253-1.9,11.32-1.835,18.573,0v7.48H71.268Z" fill="#126881"/>
        <rect id="Rectangle_202" data-name="Rectangle 202" width="17.973" height="6.622" transform="translate(71.568 326.486)" fill="#54b7d6"/>
        <path id="Rectangle_203" data-name="Rectangle 203" d="M69.676,335v-2.838h-4.73V335Z" fill="#57636f"/>
        <path id="Rectangle_204" data-name="Rectangle 204" d="M94.27,335v-2.838H89.54V335Z" fill="#57636f"/>
        <path id="Rectangle_205" data-name="Rectangle 205" d="M64,316.716a3,3,0,0,1,3-3h2.075a3,3,0,0,1,3,3V333.1H64Z" fill="#54b7d6"/>
        <path id="Rectangle_206" data-name="Rectangle 206" d="M87.649,316.716a3,3,0,0,1,3-3h2.075a3,3,0,0,1,3,3V333.1H87.649Z" fill="#54b7d6"/>
      </g>
    </g>
    <g id="kitchen_tools" data-name="kitchen tools">
      <rect id="square_11" width="66" height="66" rx="7" transform="translate(120 285)" fill="#f6f6f7"/>
      <g id="kitchen_tools_2" data-name="kitchen tools_2">
        <g id="Group_4">
          <g id="Group_5">
            <path id="Vector_40" d="M157.667,308.286a.892.892,0,0,0-.892.892h-1.694c-.6-.259-2.662-1.149-4.908-2.028-5.492-2.15-6.7-2.15-7.1-2.15a5.07,5.07,0,0,0,0,10.14c.4,0,1.611,0,7.1-2.15,2.246-.879,4.311-1.768,4.908-2.028h1.694a.892.892,0,0,0,.892.892h9a1.784,1.784,0,1,0,0-3.568Zm-14.6-1.5c1.046,0,4.28,1.156,7.38,2.394H139.908A3.292,3.292,0,0,1,143.07,306.784Zm0,6.572a3.292,3.292,0,0,1-3.162-2.394h10.543C147.35,312.2,144.117,313.356,143.07,313.356Z" fill="#ffa771"/>
          </g>
        </g>
        <g id="Group_6">
          <g id="Group_7">
            <path id="Vector_41" d="M141.43,316.42a.892.892,0,0,0-.892.892,12.688,12.688,0,0,0,25.376,0,.892.892,0,0,0-.892-.892Z" fill="#ffa771"/>
          </g>
        </g>
      </g>
    </g>
    <g id="Guitar">
      <rect id="square_12" width="134" height="66" rx="7" transform="translate(194 285)" fill="#f6f6f7"/>
      <g id="Guitar_2">
        <g id="Group_8">
          <path id="Vector_42" d="M284.042,323.005v-9.642a.883.883,0,0,1,1.766,0v9.642a.883.883,0,0,1-1.766,0Z" fill="#fed883"/>
          <path id="Vector_43" d="M287.137,323v-9.641a.883.883,0,1,1,1.765,0V323a.883.883,0,1,1-1.765,0Z" fill="#fed883"/>
          <path id="Vector_44" d="M290.232,323.005v-9.642a.883.883,0,1,1,1.765,0v9.642a.883.883,0,0,1-1.765,0Z" fill="#fed883"/>
        </g>
        <path id="Vector_45" d="M266.769,320.918V315.45c-.192-2.658-1.268-6.817-5.3-8.037-4.748-1.443-5.937,2.022-10.141,1.4-3.118-.465-7.093-6.707-15.341-4.25-5.675,1.691-7.4,7.77-7.407,13.129l0,.5v.495c0,5.358,1.731,11.437,7.406,13.127,8.249,2.457,12.222-3.782,15.34-4.248,4.2-.626,5.4,2.84,10.142,1.4C265.5,327.735,266.578,323.575,266.769,320.918Z" fill="#ffd1b5"/>
        <path id="Vector_46" d="M238.149,324.716a.877.877,0,0,1-.259-.624V312.275a.883.883,0,0,1,1.766,0v11.817a.882.882,0,0,1-1.506.624Z" fill="#d79e7b"/>
        <g id="Group_9">
          <path id="Vector_47" d="M253.7,322.915a4.732,4.732,0,1,1,4.737-4.734A4.733,4.733,0,0,1,253.7,322.915Z" fill="#d79e7b"/>
          <path id="Vector_48" d="M293.755,318.184A4.33,4.33,0,0,0,292,314.54h-7.955l-3.145,1.183-2.356,2.461,2.353,2.461,3.148,1.182H292A4.325,4.325,0,0,0,293.755,318.184Z" fill="#d79e7b"/>
        </g>
        <path id="Vector_49" d="M280.9,315.723l-23.471-.447,0,5.816,23.466-.447Z" fill="#b9805c"/>
      </g>
    </g>
  </g>
</svg>
