<svg xmlns="http://www.w3.org/2000/svg" width="30.214" height="30.211" viewBox="0 0 30.214 30.211">
  <g id="Group_81" data-name="Group 81" transform="translate(0 0)">
    <path id="icons8_account" d="M11.512,20.674C8.117,21.827,3,22.351,3,28.638H33.214c0-6.287-5.117-6.811-8.512-7.964A9.188,9.188,0,0,1,18.107,23.6,9.188,9.188,0,0,1,11.512,20.674Z" transform="translate(-3 1.573)" fill="#8b8b8b"/>
    <path id="icons8_account-2" data-name="icons8_account" d="M16.553,3C11.213,3,9,6.427,9,10.555a7.5,7.5,0,0,0,.664,2.786,1.47,1.47,0,0,0-.6,1.507c.206,1.615.907,2.026,1.352,2.06a6.571,6.571,0,0,0,2.356,3.715v2.518a2.262,2.262,0,0,1-.506.811,6.52,6.52,0,0,0,4.283,1.706,6.52,6.52,0,0,0,4.283-1.706,2.262,2.262,0,0,1-.506-.811V20.624a6.571,6.571,0,0,0,2.356-3.715c.446-.034,1.146-.445,1.352-2.06a1.471,1.471,0,0,0-.595-1.507,6.658,6.658,0,0,0,.664-2.786c0-3.057-1.2-5.665-3.777-5.665A4.005,4.005,0,0,0,16.553,3Z" transform="translate(-1.447 -3.002)" fill="#dfdfdf"/>
  </g>
</svg>
