<svg id="Group_82" data-name="Group 82" xmlns="http://www.w3.org/2000/svg" width="33.991" height="31.473" viewBox="0 0 33.991 31.473">
  <path id="icons8_shopping_cart" d="M2.259,2a1.259,1.259,0,1,0,0,2.518H4.624a.618.618,0,0,1,.6.452l5.365,18.24a3.784,3.784,0,0,0,3.622,2.71H28.032a3.79,3.79,0,0,0,3.644-2.783l3.27-11.992a1.259,1.259,0,0,0-1.215-1.591H9.2L7.644,4.26h0A3.155,3.155,0,0,0,4.624,2Z" transform="translate(-1 -2)" fill="#080c87"/>
  <path id="icons8_shopping_cart-2" data-name="icons8_shopping_cart" d="M12.518,23a2.518,2.518,0,1,0,2.518,2.518A2.518,2.518,0,0,0,12.518,23Zm12.589,0a2.518,2.518,0,1,0,2.518,2.518A2.518,2.518,0,0,0,25.107,23Z" transform="translate(1.33 3.437)" fill="#a4c4f4"/>
</svg>
