<svg id="Group_80" data-name="Group 80" xmlns="http://www.w3.org/2000/svg" width="27.696" height="27.696" viewBox="0 0 27.696 27.696">
  <path id="icons8_categorize" d="M6.518,4A2.517,2.517,0,0,0,4,6.518v7.553a2.517,2.517,0,0,0,2.518,2.518h7.553a2.517,2.517,0,0,0,2.518-2.518V6.518A2.517,2.517,0,0,0,14.071,4Zm0,15.107A2.537,2.537,0,0,0,4,21.625v7.553A2.537,2.537,0,0,0,6.518,31.7h7.553a2.537,2.537,0,0,0,2.518-2.518V21.625a2.537,2.537,0,0,0-2.518-2.518Zm15.107,0a2.537,2.537,0,0,0-2.518,2.518v7.553A2.537,2.537,0,0,0,21.625,31.7h7.553A2.537,2.537,0,0,0,31.7,29.178V21.625a2.537,2.537,0,0,0-2.518-2.518ZM6.518,21.625H9.036a1.259,1.259,0,1,0,2.518,0h2.518v2.518a1.259,1.259,0,0,0,0,2.518v2.518H11.553a1.259,1.259,0,0,0-2.518,0H6.518V26.66a1.259,1.259,0,0,0,0-2.518Zm16.366,0h5.036v1.259h1.259v5.036H27.919v1.259H22.884V27.919H21.625V22.884h1.259Zm1.259,2.518V26.66H26.66V24.143Z" transform="translate(-4 -4)" fill="#8b8b8b"/>
  <path id="icons8_categorize-2" data-name="icons8_categorize" d="M18.518,4A2.537,2.537,0,0,0,16,6.518v7.553a2.537,2.537,0,0,0,2.518,2.518h7.553a2.537,2.537,0,0,0,2.518-2.518V6.518A2.537,2.537,0,0,0,26.071,4Zm0,2.518h7.553v7.553H18.518Z" transform="translate(-0.893 -4)" fill="#dfdfdf"/>
</svg>
