<svg xmlns="http://www.w3.org/2000/svg" width="32.733" height="28.956" viewBox="0 0 32.733 28.956">
  <g id="Group_83" data-name="Group 83" transform="translate(0 0)">
    <path id="icons8_dog_house" d="M17.848,7,4,15.812V28.4a2.517,2.517,0,0,0,2.518,2.518h5.036V25.884a6.295,6.295,0,1,1,12.589,0v5.036h5.036A2.517,2.517,0,0,0,31.7,28.4V15.812Z" transform="translate(-1.482 -1.964)" fill="#080c87"/>
    <path id="icons8_dog_house-2" data-name="icons8_dog_house" d="M18.324,3a1.259,1.259,0,0,0-.634.2L2.583,12.811a1.259,1.259,0,1,0,1.352,2.124L18.366,5.752,32.8,14.935a1.259,1.259,0,1,0,1.352-2.124L19.042,3.2a1.259,1.259,0,0,0-.718-.2Z" transform="translate(-2 -2.999)" fill="#a4c4f4"/>
  </g>
</svg>
