<svg xmlns="http://www.w3.org/2000/svg" width="35.833" height="27.16" viewBox="0 0 35.833 27.16">
  <g id="Group_79" data-name="Group 79" transform="translate(0 0)">
    <path id="Path_8" data-name="Path 8" d="M339.459,1550.054a13.432,13.432,0,0,1-.1,1.623h-.017l0-1.237a6.051,6.051,0,0,0-10.073-4.513,6.029,6.029,0,0,0-4.03-1.542h0a6.042,6.042,0,0,0-6.057,6.027l0,3.25a2.016,2.016,0,0,0,4.032.006l0-3.251a2.016,2.016,0,0,1,4.032,0l0,3.253a2.016,2.016,0,0,0,4.032.006l0-3.25a.306.306,0,0,1,0-.039,2,2,0,0,1,.591-1.383,2.024,2.024,0,0,1,1.423-.587,2.074,2.074,0,0,1,2.016,2.076l0,3.189a2.013,2.013,0,0,0,2.013,2.015h.9a13.581,13.581,0,1,1,1.238-5.647Z" transform="translate(-312.24 -1536.454)" fill="#8b8b8b"/>
    <ellipse id="Ellipse_1" data-name="Ellipse 1" cx="3.673" cy="3.673" rx="3.673" ry="3.673" transform="translate(28.487 13.046)" fill="#dfdfdf"/>
  </g>
</svg>
